<svg xmlns="http://www.w3.org/2000/svg" version="1.1" xmlns:xlink="http://www.w3.org/1999/xlink" xmlns:svgjs="http://svgjs.dev/svgjs" width="100%" height="100%" viewBox="0 0 1000 600"><rect width="1000" height="600" x="0" y="0" fill="#ffffff"/><g><rect width="333.3333333333333" height="333.3333333333333" y="235.86727324303752" fill="#a9a9a9" transform="matrix(0.5850826014881155,0,0,0.5850826014881155,0,64.48439868569719)" x="213.64498901367188"/><path d="M330.1645708410868 477.53394316041977L330.1645708410868 477.53394316041977L331.5198975860583 467.10107914680196Q342.17339618606684 465.0523294160311 345.7035495683182 461.0809068609983Q349.20218372394226 457.10948430596557 349.20218372394226 447.59067786453784L349.20218372394226 447.59067786453784L349.4543375369602 352.2765365437516Q349.4543375369602 345.0271144194855 347.8468569789708 342.50557628930596Q346.27089564760854 340.01555738575365 341.038704027486 340.01555738575365L341.038704027486 340.01555738575365Q338.98995429671515 340.01555738575365 336.1532239002632 340.2361919721444Q333.3164935038112 340.4883457851623 333.3164935038112 340.4883457851623L333.3164935038112 340.4883457851623L332.8752243310298 339.57428821297225L334.451185662392 329.58269337213585Q334.451185662392 329.58269337213585 337.413992965353 329.70877027864486Q340.3768002683139 329.80332795852655 345.13620348902776 329.92940486503556Q349.8956067097416 330.0239625449173 355.4429905961366 330.15003945142627Q361.0218937091588 330.2761163579353 366.00193151626337 330.2761163579353L366.00193151626337 330.2761163579353Q381.6669871500037 330.2761163579353 393.2345433222023 330.0239625449173Q404.80209949440086 329.80332795852655 413.78507908316544 329.14142419935445Q422.7365394453028 328.4480012135551 429.7653269831782 327.533943641365L429.7653269831782 327.533943641365L430.4587499689776 328.88927038633653Q430.4587499689776 328.88927038633653 429.4501347169058 334.121462006459Q428.41000023820675 339.35365362658155 427.1807503997442 348.08447940232816Q425.91998133465444 356.8153051780748 425.22655834885506 367.24816919169257L425.22655834885506 367.24816919169257L414.35242516245586 368.16222676388264Q414.35242516245586 368.16222676388264 414.57305974884656 364.06472730234094Q414.79369433523726 359.99874706742645 414.79369433523726 357.72936275026484L414.79369433523726 357.72936275026484Q414.79369433523726 350.22778681298075 412.9970984174844 346.82371033723837Q411.1689832731042 343.41963386149604 404.7075418145191 342.50557628930596Q398.2461003559341 341.62303794374316 384.37764063994666 341.62303794374316L384.37764063994666 341.62303794374316Q377.12821851568054 341.62303794374316 373.7241420399382 342.06430711652456Q370.32006556419583 342.50557628930596 369.5320848985147 344.3336914336861Q368.7441042328336 346.16180657806626 368.4919504198157 350.44842139937145L368.4919504198157 350.44842139937145L366.69535450206274 398.35764587278254L390.0511014328506 398.57828045917324Q393.70733172161096 398.57828045917324 399.25471560800594 397.88485747337387Q404.80209949440086 397.22295371420176 409.340868128724 396.65560763491135Q413.8796367630472 396.088261555621 413.8796367630472 396.088261555621L413.8796367630472 396.088261555621L414.79369433523726 397.22295371420176L411.61025244588564 410.8392596171712Q411.61025244588564 410.8392596171712 406.85084922517177 410.5871058041533Q402.0914460044579 410.3664712177625 395.63000454587285 410.27191353788083Q389.1685630872878 410.1458366313718 383.71573688077456 410.1458366313718L383.71573688077456 410.1458366313718Q378.7041798470427 410.1458366313718 373.9447766263289 410.71318271066224Q369.185373405615 411.28052878995265 366.22256610265407 411.72179796273406L366.22256610265407 411.72179796273406L365.34002775709126 449.418793008918Q365.34002775709126 458.4963302775643 367.35725826123485 461.6482529402887Q369.4060079920057 464.83169482964036 375.3001033713004 464.83169482964036L375.3001033713004 464.83169482964036Q377.56948768846195 464.83169482964036 381.446352563613 464.61106024324965Q385.2916982121368 464.39042565685895 388.34906319497946 464.26434875035Q391.43794740444935 464.16979107046825 391.43794740444935 464.16979107046825L391.43794740444935 464.16979107046825L391.8792165772308 465.0523294160311L389.8304668464599 475.73734724266683Q389.8304668464599 475.73734724266683 386.3318326908358 475.6112703361579Q382.8016793085845 475.5167126562761 377.47493000858026 475.2645588432582Q372.148180708576 475.0439242568675 366.3486430091631 474.94936657698577Q360.54910530975013 474.8232896704768 356.01033667542697 474.8232896704768L356.01033667542697 474.8232896704768Q350.33687588252303 474.8232896704768 344.34822282334665 475.5167126562761Q338.32805053754305 476.1786164154483 334.2305510760013 476.87203940124766Q330.1645708410868 477.53394316041977 330.1645708410868 477.53394316041977Z " fill="#fdfdfd" transform="matrix(0.5850826014881155,0,0,0.5850826014881155,0,64.48439868569719)"/><path d="M630.3116617163794 476.4759477852814L630.3116617163794 476.4759477852814L631.5753764272539 466.74828338296834Q641.5087618290116 464.8380169595534 644.8002978201266 461.135038969549Q648.0624450970352 457.43206097954464 648.0624450970352 448.55666928921676L648.0624450970352 448.55666928921676L648.2975548106863 359.68519752911214Q648.2975548106863 352.9257932616439 646.7987303861607 350.5746961251332Q645.3292946758415 348.2529877028289 640.4507681175818 348.2529877028289L640.4507681175818 348.2529877028289Q638.5405016941669 348.2529877028289 635.8955174155924 348.45870870227355Q633.2505331370178 348.6938184159246 633.2505331370178 348.6938184159246L633.2505331370178 348.6938184159246L632.8390911381284 347.8415457039395L634.3085268484476 338.5253233005159Q634.3085268484476 338.5253233005159 637.0710659838477 338.6428781573414Q639.8336051192477 338.73104429996056 644.2713009644117 338.84859915678607Q648.7089968095756 338.93676529940524 653.8814105098992 339.05432015623074Q659.0832129244291 339.1718750130563 663.7266297690378 339.1718750130563L663.7266297690378 339.1718750130563Q678.3328207296105 339.1718750130563 689.1184788433534 338.93676529940524Q699.9041369570962 338.73104429996056 708.2799205059156 338.11388130162646Q716.6263153405285 337.46732958908603 723.1799986085522 336.6150568771009L723.1799986085522 336.6150568771009L723.8265503210926 337.8787715879754Q723.8265503210926 337.8787715879754 722.8861114664883 342.75729814623514Q721.9162838976777 347.63582470449484 720.7701240436287 355.7764985396631Q719.5945754753734 363.91717237483147 718.9480237628329 373.64483677714446L718.9480237628329 373.64483677714446L708.8089173616305 374.49710948912957Q708.8089173616305 374.49710948912957 709.0146383610752 370.6765766422997Q709.2203593605199 366.8854325096762 709.2203593605199 364.7694450868166L709.2203593605199 364.7694450868166Q709.2203593605199 357.7749311056972 707.545202650756 354.6009499714078Q705.8406572267858 351.42696883711835 699.815970814477 350.5746961251332Q693.7912844021685 349.75181212735447 680.8602501513595 349.75181212735447L680.8602501513595 349.75181212735447Q674.1008458838912 349.75181212735447 670.9268647496018 350.1632541262438Q667.7528836153124 350.5746961251332 667.0181657601528 352.27924154910346Q666.2834479049932 353.98378697307373 666.048338191342 357.9806521051419L666.048338191342 357.9806521051419L664.3731814815783 402.6514976988453L686.1502187085086 402.85721869828996Q689.5593095564491 402.85721869828996 694.7317232567727 402.2106669857495Q699.9041369570962 401.5935039874155 704.1361118028155 401.06450713170057Q708.3680866485347 400.53551027598564 708.3680866485347 400.53551027598564L708.3680866485347 400.53551027598564L709.2203593605199 401.5935039874155L706.2520992256751 414.2894285245733Q706.2520992256751 414.2894285245733 701.8144033805112 414.05431881092215Q697.3767075353472 413.8485978114775 691.3520211230385 413.76043166885836Q685.3273347107299 413.6428768120328 680.2430871530255 413.6428768120328L680.2430871530255 413.6428768120328Q675.5702815942104 413.6428768120328 671.1325857490465 414.1718736677477Q666.6948899038825 414.70087052346264 663.9323507684825 415.112312522352L663.9323507684825 415.112312522352L663.1094667707036 450.26121471318703Q663.1094667707036 458.7251644046255 664.9903444799122 461.6640358252639Q666.9006109033272 464.63229596010865 672.396300459921 464.63229596010865L672.396300459921 464.63229596010865Q674.5122878827806 464.63229596010865 678.1270997301658 464.42657496066397Q681.7125228633447 464.2208539612193 684.5632281413639 464.1032991043938Q687.4433221335895 464.0151329617746 687.4433221335895 464.0151329617746L687.4433221335895 464.0151329617746L687.8547641324789 464.8380169595534L685.9444977090639 474.8007910755175Q685.9444977090639 474.8007910755175 682.6823504321553 474.68323621869195Q679.3908144410403 474.59507007607283 674.4241217401615 474.3599603624217Q669.4574290392826 474.154239362977 664.0499056253079 474.0660732203579Q658.6423822113334 473.94851836353234 654.4104073656141 473.94851836353234L654.4104073656141 473.94851836353234Q649.120438808465 473.94851836353234 643.5365831092521 474.59507007607283Q637.9233386958329 475.21223307440687 634.1028058490028 475.8587847869473Q630.3116617163794 476.4759477852814 630.3116617163794 476.4759477852814ZM795.9758436977648 476.4759477852814L795.9758436977648 476.4759477852814Q787.5118940063263 476.4759477852814 782.7509223048921 472.1558067969429Q777.9899506034579 467.8062770943981 777.1376778914728 459.3423274029596L777.1376778914728 459.3423274029596L776.3147938936941 459.1366064035149Q771.2305463359896 464.2208539612193 766.6752956340001 467.92383195122363Q762.1200449320107 471.62680994122803 758.6227879414511 473.6252425072621Q755.1549196650977 475.6530637875026 753.0389322422382 475.6530637875026L753.0389322422382 475.6530637875026Q745.1921455491337 475.6530637875026 739.0499042799994 472.2439729395621Q732.9370517250716 468.86427080582797 729.4397947345119 462.95713925034477Q725.9425377439522 457.0206189806553 725.9425377439522 449.40894200120186L725.9425377439522 449.40894200120186Q725.9425377439522 443.26670073206765 728.9989640214162 438.623283887459Q732.0847790130865 433.950478328644 737.1690265707908 432.4810426183248L737.1690265707908 432.4810426183248L777.3727876051239 421.4602747909309L777.5785086045686 412.1734411017136Q777.5785086045686 401.5935039874155 772.6999820463088 395.65698371772595Q767.8508442022555 389.7204634480364 758.9460637977213 389.7204634480364L758.9460637977213 389.7204634480364Q753.0389322422382 389.7204634480364 746.4558602600082 392.4830025834365Q739.9021769919846 395.24554171883653 733.5542147234057 400.3004005623346L733.5542147234057 400.3004005623346L732.4962210119759 399.6832375640005L729.9687915902268 390.5727361600215Q735.4644811468206 387.3987550257321 742.2238854142888 383.90149803517244Q749.0126783959636 380.4336297588191 755.1549196650977 378.08253262230846Q761.2677722200256 375.7608242000041 764.441753354315 375.7608242000041L764.441753354315 375.7608242000041Q773.7579757577387 375.7608242000041 780.3116590257623 379.0523601911191Q786.8947310079923 382.31450746802767 790.3625992843455 388.3685825945428Q793.8598562749052 394.3932690068514 793.8598562749052 403.06293969773463L793.8598562749052 403.06293969773463Q793.8598562749052 405.82547883313475 793.3308594191903 411.9383313880626Q792.8018625634754 418.08057265719674 791.9495898514903 425.604083494031Q791.1267058537115 433.0982056166589 790.5977089979966 440.0927195977782Q790.0687121422817 447.08723357889755 790.0687121422817 451.7306504235062L790.0687121422817 451.7306504235062Q790.0687121422817 456.3740672681148 792.3904205645861 458.93088540407024Q794.7121289868903 461.45831482581923 798.7383828331649 461.45831482581923L798.7383828331649 461.45831482581923Q802.3238059663438 461.45831482581923 805.9386178137289 459.6656032592298Q809.5240409469077 457.87289169264045 811.4343073703227 456.1683462686701L811.4343073703227 456.1683462686701L814.4025675051674 459.5480484024043Q812.6980220811972 462.3105875378044 809.8473168031779 465.80784452836406Q806.9966115251588 469.3051015189237 803.4993545345991 472.2439729395621Q800.0020975440394 475.21223307440687 795.9758436977648 476.4759477852814ZM756.6243553754169 461.25259382637455L756.6243553754169 461.25259382637455Q760.6506092216915 461.25259382637455 766.0287439214597 458.4018885483553Q771.4362673354344 455.5511832703361 775.8739631805984 451.08409871096575L775.8739631805984 451.08409871096575L776.9319568920282 429.51278248348007L748.1604056839784 438.1824531743633Q742.0181644148441 440.0927195977782 742.0181644148441 447.08723357889755L742.0181644148441 447.08723357889755Q742.0181644148441 452.9943651343807 746.1619731179443 457.13817383748085Q750.276393106838 461.25259382637455 756.6243553754169 461.25259382637455ZM862.2180055189539 473.94851836353234L850.3743536937812 477.5339414967112Q850.3743536937812 477.5339414967112 848.8755292692556 472.8905246521025Q847.4060935589364 468.2471078074939 845.0843851366321 460.60604211383406Q842.7332880001214 452.9943651343807 839.794416579483 443.91325244460813Q836.8261564446383 434.8027510406291 833.9754511666191 425.604083494031Q831.0953571743935 416.40541594743286 828.5679277526444 408.67618411115393Q826.0404983308954 400.946952274875 824.5416739063699 396.50925642971106L824.5416739063699 396.50925642971106Q820.9562507731911 386.34076131430226 810.1705926594482 385.9293193154129L810.1705926594482 385.9293193154129L809.7297619463525 385.0770466034278L810.9934766572269 378.08253262230846Q810.9934766572269 378.08253262230846 814.4025675051674 378.08253262230846Q817.7822696389017 378.08253262230846 822.0142444846208 378.20008747913397Q826.2462193303401 378.3176423359595 828.5679277526444 378.3176423359595L828.5679277526444 378.3176423359595Q835.1216110206681 378.3176423359595 840.8524102909129 377.8768116228637Q846.5538208469513 377.46536962397437 850.2567988369557 377.1420937677042Q853.95977682696 376.81881791143394 853.95977682696 376.81881791143394L853.95977682696 376.81881791143394L854.3712188258494 377.8768116228637L853.1075041149749 384.4304948908873Q845.9072691344109 384.6656046045384 843.2622848558364 385.8117644585874Q840.6173005772619 386.98731302684274 840.6173005772619 389.9555731616875L840.6173005772619 389.9555731616875Q840.6173005772619 391.4250088720067 841.9104040023427 396.8325322859813Q843.1741187132172 402.2106669857495 845.2901061360768 409.7341778225838Q847.4060935589364 417.22829994521163 849.6102471244152 425.16325278093524Q851.8437894041004 433.0982056166589 853.95977682696 440.0927195977782Q856.0757642498197 447.08723357889755 857.3394789606941 451.407374567236Q858.6031936715686 455.75690426978076 858.6031936715686 455.75690426978076L858.6031936715686 455.75690426978076L859.4554663835538 455.75690426978076Q867.3022530766583 436.2721867509483 872.8861087758712 422.7533782160118Q878.4993531892906 409.20518096686885 881.4676133241353 401.35839427376436Q884.43587345898 393.5409962948663 884.43587345898 391.01356687311727L884.43587345898 391.01356687311727Q884.43587345898 388.04530673827253 882.4080521787396 386.98731302684274Q880.4096196127055 385.9293193154129 875.325372055001 385.9293193154129L875.325372055001 385.9293193154129L867.3022530766583 385.9293193154129L866.4499803646731 384.6656046045384L867.507974076103 378.08253262230846Q867.507974076103 378.08253262230846 871.0052310666626 378.08253262230846Q874.473099343016 378.08253262230846 879.763067900165 378.20008747913397Q885.0530364573141 378.3176423359595 890.1372840150185 378.3176423359595L890.1372840150185 378.3176423359595Q893.9578168618484 378.3176423359595 897.984070708123 378.20008747913397Q901.9809358401911 378.08253262230846 904.7434749755912 378.08253262230846Q907.5060141109914 378.08253262230846 907.5060141109914 378.08253262230846L907.5060141109914 378.08253262230846L906.0071896864657 385.9293193154129Q901.5694938413018 386.546482313747 899.0420644195528 389.51474244859173Q896.4852462835975 392.4830025834365 892.4589924373229 401.79922498686017L892.4589924373229 401.79922498686017L862.2180055189539 473.94851836353234ZM915.3234120898894 476.4759477852814L915.3234120898894 476.4759477852814L916.1756848018745 467.8062770943981Q922.5236470704534 466.1311203846343 925.2567974916471 462.83958439351926Q928.0193366270471 459.5480484024043 928.0193366270471 454.05235884581055L928.0193366270471 454.05235884581055L928.0193366270471 400.3004005623346Q928.0193366270471 394.3932690068514 926.1090702036322 391.63072987145136Q924.1988037802173 388.8975794502577 920.201938648149 388.8975794502577L920.201938648149 388.8975794502577Q918.4973932241788 388.8975794502577 916.7046816575894 389.30902144914705Q914.9119700910001 389.7204634480364 914.9119700910001 389.7204634480364L914.9119700910001 389.7204634480364L915.7348540887788 381.9030654691383Q921.0248226459278 381.0507927571532 926.4323460599024 379.99279904572336Q931.8398694738771 378.93480533429357 936.2775653190411 377.9943664796893Q940.715261164205 377.0245389108786 943.477800299605 376.4073759125446Q946.2109507207988 375.7608242000041 946.2109507207988 375.7608242000041L946.2109507207988 375.7608242000041L947.2689444322286 378.3176423359595Q946.4166717202434 380.4336297588191 945.4762328656392 387.7220308820023Q944.5357940110348 395.0104320051855 943.8892422984944 405.5022029768645Q943.242690585954 415.96458523433716 942.8312485870646 428.3372339152247Q942.4198065881752 440.73927131031866 942.4198065881752 453.2000861338254L942.4198065881752 453.2000861338254Q942.4198065881752 459.3423274029596 944.0949632979391 462.19303268097883Q945.7995087219094 465.07312667320446 949.825762568184 465.07312667320446L949.825762568184 465.07312667320446Q951.7066402773926 465.07312667320446 954.4691794127925 464.8380169595534Q957.2317185481927 464.63229596010865 957.2317185481927 464.63229596010865L957.2317185481927 464.63229596010865L957.6431605470821 465.4845686720938L955.9386151231117 474.59507007607283Q955.9386151231117 474.59507007607283 954.1459035565224 474.47751521924727Q952.3531919899331 474.3599603624217 949.5024867119138 474.2717942198026Q946.6517814338945 474.154239362977 943.3602454427795 474.0660732203579Q940.0687094516645 473.94851836353234 937.1298380310261 473.94851836353234L937.1298380310261 473.94851836353234Q932.6627534716558 473.94851836353234 927.6078946281577 474.59507007607283Q922.5236470704534 475.21223307440687 918.9088352230682 475.8587847869473Q915.3234120898894 476.4759477852814 915.3234120898894 476.4759477852814ZM933.9558568967368 350.8098058387843L933.9558568967368 350.8098058387843Q928.6658883395876 350.8098058387843 926.1090702036322 347.40071499084377Q923.5816407818832 344.0210128571096 923.5816407818832 339.9947590108351L923.5816407818832 339.9947590108351Q923.5816407818832 334.93990016733704 927.167063915062 331.23692217733264Q930.7818757624473 327.5339441873283 936.0718443195964 327.5339441873283L936.0718443195964 327.5339441873283Q941.1267031630944 327.5339441873283 943.771687441669 330.7960914642369Q946.4166717202434 334.0876274553519 946.4166717202434 338.3196023010712L946.4166717202434 338.3196023010712Q946.4166717202434 343.4038498587756 942.9488034438901 347.1068278487799Q939.4515464533305 350.8098058387843 933.9558568967368 350.8098058387843ZM1017.5373600996923 476.4759477852814L1017.5373600996923 476.4759477852814Q1004.194883849994 476.4759477852814 994.2614984482364 470.65698237241736Q984.2987243322721 464.8380169595534 978.8030347756785 454.3756347020808Q973.3073452190846 443.91325244460813 973.3073452190846 429.71850348292475L973.3073452190846 429.71850348292475Q973.3073452190846 414.49514952401796 979.7434736302827 402.3282218425751Q986.2089907556871 390.16129416113216 997.3179247257002 382.96105918056816Q1008.4268586957132 375.7608242000041 1022.1807769443009 375.7608242000041L1022.1807769443009 375.7608242000041Q1028.9401812117692 375.7608242000041 1034.5534256251883 376.73065176881477Q1040.1666700386077 377.67109062341905 1043.5463721723418 378.7290843348489Q1046.9260743060759 379.7870780462787 1046.9260743060759 379.7870780462787L1046.9260743060759 379.7870780462787L1047.5726260186166 381.2565137565979Q1047.5726260186166 381.2565137565979 1046.632187164012 385.0770466034278Q1045.6623595952015 388.8975794502577 1044.6043658837716 395.5394288609004Q1043.5463721723418 402.2106669857495 1043.1349301734526 410.4688956777434L1043.1349301734526 410.4688956777434L1034.4652594825693 411.1154473902838L1034.4652594825693 404.53237540805384Q1034.4652594825693 396.71497742915574 1029.704287781135 391.95400572772155Q1024.943316079701 387.1930340262874 1017.0965293865964 387.1930340262874L1017.0965293865964 387.1930340262874Q1004.194883849994 387.1930340262874 997.2003698688746 396.3917015728855Q990.2352446019617 405.5903691194836 990.2352446019617 422.5182685023607L990.2352446019617 422.5182685023607Q990.2352446019617 440.94499230976334 997.9644764382406 451.61309556668067Q1005.6643195603132 462.3105875378044 1019.0067958100115 462.3105875378044L1019.0067958100115 462.3105875378044Q1024.943316079701 462.3105875378044 1030.4390056362947 460.51787597121495Q1035.9346951928883 458.7251644046255 1039.4319521834482 457.0206189806553Q1042.9292091740078 455.316073556685 1042.9292091740078 455.316073556685L1042.9292091740078 455.316073556685L1044.1929238848822 455.75690426978076L1046.5146323071867 462.3105875378044Q1046.5146323071867 462.3105875378044 1043.5463721723418 464.42657496066397Q1040.5781120374972 466.5425623835236 1035.9346951928883 469.39326766154284Q1031.2912783482798 472.2439729395621 1026.2951969331946 474.3599603624217Q1021.3285042323157 476.4759477852814 1017.5373600996923 476.4759477852814ZM1100.8837535889966 476.4759477852814L1100.8837535889966 476.4759477852814Q1088.8343807643791 476.4759477852814 1079.5181583609556 470.56881622979824Q1070.201935957532 464.63229596010865 1065.0295222572083 453.9641927031914Q1059.857108556885 443.26670073206765 1059.857108556885 429.51278248348007L1059.857108556885 429.51278248348007Q1059.857108556885 414.2894285245733 1066.293236968083 402.12250084313035Q1072.7587540934874 389.9555731616875 1083.9558542061195 382.8435043237426Q1095.1823430329582 375.7608242000041 1108.9362612815457 375.7608242000041L1108.9362612815457 375.7608242000041Q1120.9856341061632 375.7608242000041 1130.3018565095867 381.69734446969363Q1139.6180789130103 387.6044760251768 1144.790492613334 398.18441313947494Q1149.9922950278637 408.7643502537731 1149.9922950278637 422.7533782160118L1149.9922950278637 422.7533782160118Q1149.9922950278637 437.7710111754739 1143.5267779024596 450.02610499953596Q1137.0906494912615 462.3105875378044 1125.9817155212484 469.39326766154284Q1114.8727815512352 476.4759477852814 1100.8837535889966 476.4759477852814ZM1106.820273858686 466.1311203846343L1106.820273858686 466.1311203846343Q1118.663925683859 466.1311203846343 1125.6584396649782 456.49162212494036Q1132.623564931891 446.8521238652465 1132.623564931891 430.3650551954652L1132.623564931891 430.3650551954652Q1132.623564931891 417.6691306583074 1128.8324207992675 407.9414662559943Q1125.0118879524377 398.18441313947494 1118.2524836849695 392.68872358288115Q1111.4636907032948 387.1930340262874 1102.588299012967 387.1930340262874L1102.588299012967 387.1930340262874Q1090.7446471877943 387.1930340262874 1083.750133206675 396.9206984286004Q1076.785007939762 406.64836283091347 1076.785007939762 423.37054121434585L1076.785007939762 423.37054121434585Q1076.785007939762 436.06646575150364 1080.5761520723854 445.7059640111975Q1084.3966849192152 455.316073556685 1091.1560891866836 460.7235969706596Q1097.9448821683584 466.1311203846343 1106.820273858686 466.1311203846343ZM1225.9621212513662 476.4759477852814L1226.785005249145 467.8062770943981Q1233.1329675177237 466.1311203846343 1235.895506653124 462.83958439351926Q1238.6580457885239 459.5480484024043 1238.6580457885239 454.05235884581055L1238.6580457885239 454.05235884581055L1239.4809297863026 412.1734411017136Q1239.4809297863026 401.5935039874155 1234.9550677985194 395.86270471717063Q1230.3998170965301 390.16129416113216 1221.9358674050914 390.16129416113216L1221.9358674050914 390.16129416113216Q1216.8516198473872 390.16129416113216 1211.561651290238 392.2772815839918Q1206.2716827330887 394.3932690068514 1202.1572627441951 396.9206984286004Q1198.013454041095 399.4775165645558 1195.8974666182355 401.1526732743197L1195.8974666182355 401.1526732743197Q1195.6917456187907 406.64836283091347 1195.3684697625204 414.1718736677477Q1195.0451939062505 421.69538450458197 1194.7513067641867 429.51278248348007Q1194.4280309079163 437.33018046237817 1194.2223099084717 443.67814273095706Q1193.9872001948204 450.02610499953596 1193.9872001948204 453.2000861338254L1193.9872001948204 453.2000861338254Q1193.9872001948204 459.78315811605535 1195.8093004756163 462.4281423946299Q1197.6020120422056 465.07312667320446 1201.6282658884802 465.07312667320446L1201.6282658884802 465.07312667320446Q1203.5091435976888 465.07312667320446 1206.2716827330887 464.8380169595534Q1209.0342218684889 464.63229596010865 1209.0342218684889 464.63229596010865L1209.0342218684889 464.63229596010865L1209.4456638673782 465.4845686720938L1207.5353974439636 474.59507007607283Q1207.5353974439636 474.59507007607283 1204.361416309674 474.3599603624217Q1201.1874351753845 474.154239362977 1196.7497393302206 474.0660732203579Q1192.3120434850566 473.94851836353234 1188.285789638782 473.94851836353234L1188.285789638782 473.94851836353234Q1183.848093793618 473.94851836353234 1178.9695672353582 474.2717942198026Q1174.1204293913052 474.59507007607283 1170.7113385433645 474.8889572181366Q1167.3316364096304 475.21223307440687 1167.3316364096304 475.21223307440687L1167.3316364096304 475.21223307440687L1168.3896301210602 466.5425623835236Q1174.5318713901943 465.4845686720938 1177.0593008119436 462.72202953669375Q1179.616118947899 459.9888791155 1179.616118947899 454.05235884581055L1179.616118947899 454.05235884581055L1179.616118947899 402.4163879851942Q1179.616118947899 395.24554171883653 1177.2944105255945 392.3654477266109Q1174.9433133890839 389.51474244859173 1169.2419028330453 389.51474244859173L1169.2419028330453 389.51474244859173L1166.920194410741 389.51474244859173L1166.2736426982005 388.66246973660657L1166.920194410741 381.69734446969363Q1174.3261503907497 380.4336297588191 1181.085554658218 379.0523601911191Q1187.8743476398927 377.67109062341905 1192.194488628231 376.61309691198926Q1196.5440183307758 375.5551032005594 1196.5440183307758 375.5551032005594L1196.5440183307758 375.5551032005594L1197.8077330416504 377.2596486245297Q1197.8077330416504 377.2596486245297 1196.8672941870461 381.49162347024895Q1195.8974666182355 385.7235983159682 1195.4860246193462 391.219287872562L1195.4860246193462 391.219287872562L1195.8974666182355 391.83645087089604Q1197.8077330416504 390.5727361600215 1201.922153030544 387.927751881447Q1206.0659617336441 385.28276760287247 1210.8269334350784 382.54961718167874Q1215.5879051365127 379.7870780462787 1220.0256009816767 377.7886454802446Q1224.4632968268404 375.7608242000041 1227.020114962796 375.7608242000041L1227.020114962796 375.7608242000041Q1240.3332024982876 375.7608242000041 1248.1799891913922 383.16678018001284Q1255.9973871702903 390.5727361600215 1255.9973871702903 403.06293969773463L1255.9973871702903 403.06293969773463Q1255.9973871702903 405.82547883313475 1255.585945171401 412.1734411017136Q1255.145114458305 418.52140337029255 1254.5279514599713 426.3388013491906Q1253.8813997474306 434.1561993280887 1253.4699577485414 441.3564343086527Q1253.0291270354453 448.55666928921676 1253.0291270354453 453.2000861338254L1253.0291270354453 453.2000861338254Q1253.0291270354453 459.3423274029596 1254.7336724594159 462.19303268097883Q1256.4088291691796 465.07312667320446 1260.4350830154542 465.07312667320446L1260.4350830154542 465.07312667320446Q1262.3453494388693 465.07312667320446 1265.1078885742693 464.8380169595534Q1267.8410389954631 464.63229596010865 1267.8410389954631 464.63229596010865L1267.8410389954631 464.63229596010865L1268.2818697085588 465.4845686720938L1266.5773242845885 474.59507007607283Q1266.5773242845885 474.59507007607283 1264.784612717999 474.47751521924727Q1262.9919011514096 474.3599603624217 1260.1118071591839 474.2717942198026Q1257.2611018811647 474.154239362977 1253.9989546042564 474.0660732203579Q1250.7074186131413 473.94851836353234 1247.7391584782965 473.94851836353234L1247.7391584782965 473.94851836353234Q1244.3594563445624 473.94851836353234 1240.656478354558 474.3599603624217Q1236.9535003645535 474.8007910755175 1233.5737982308194 475.21223307440687Q1230.1940960970853 475.6530637875026 1228.0781086742259 476.064505786392Q1225.9621212513662 476.4759477852814 1225.9621212513662 476.4759477852814L1225.9621212513662 476.4759477852814ZM1305.076539894951 476.4759477852814L1305.076539894951 476.4759477852814Q1299.1694083394682 476.4759477852814 1296.2011482046232 472.772969795277Q1293.2328880697785 469.06999180527265 1293.2328880697785 464.42657496066397L1293.2328880697785 464.42657496066397Q1293.2328880697785 458.93088540407024 1296.8476999171637 455.1103525572404Q1300.4331230503424 451.3192084246168 1306.369643320032 451.3192084246168L1306.369643320032 451.3192084246168Q1312.2767748755152 451.3192084246168 1315.3625898671855 454.90463155779565Q1318.4190161446493 458.4900546909745 1318.4190161446493 463.3685812492342L1318.4190161446493 463.3685812492342Q1318.4190161446493 468.65854980638323 1314.8335930114706 472.5672487958323Q1311.2187811640854 476.4759477852814 1305.076539894951 476.4759477852814ZM1347.3962883521438 476.4759477852814L1347.3962883521438 476.4759477852814L1348.248561064129 467.8062770943981Q1354.5965233327079 466.1311203846343 1357.359062468108 462.83958439351926Q1360.0922128893017 459.5480484024043 1360.0922128893017 454.05235884581055L1360.0922128893017 454.05235884581055L1360.0922128893017 400.3004005623346Q1360.0922128893017 394.3932690068514 1358.211335180093 391.63072987145136Q1356.3010687566782 388.8975794502577 1352.2748149104036 388.8975794502577L1352.2748149104036 388.8975794502577Q1350.5702694864333 388.8975794502577 1348.777557919844 389.30902144914705Q1346.9848463532546 389.7204634480364 1346.9848463532546 389.7204634480364L1346.9848463532546 389.7204634480364L1347.8371190652397 381.9030654691383Q1353.1270876223887 381.0507927571532 1358.505222322157 379.99279904572336Q1363.9127457361317 378.93480533429357 1368.3504415812956 377.9943664796893Q1372.7881374264596 377.0245389108786 1375.5506765618595 376.4073759125446Q1378.3132156972595 375.7608242000041 1378.3132156972595 375.7608242000041L1378.3132156972595 375.7608242000041L1379.3712094086893 378.3176423359595Q1378.5189366967043 380.4336297588191 1377.5491091278936 387.7220308820023Q1376.6086702732894 395.0104320051855 1375.9621185607489 405.5022029768645Q1375.344955562415 415.96458523433716 1374.9041248493193 428.3372339152247Q1374.4926828504297 440.73927131031866 1374.4926828504297 453.2000861338254L1374.4926828504297 453.2000861338254Q1374.4926828504297 459.3423274029596 1376.1972282744 462.19303268097883Q1377.8723849841638 465.07312667320446 1381.8986388304386 465.07312667320446L1381.8986388304386 465.07312667320446Q1383.8089052538533 465.07312667320446 1386.542055675047 464.8380169595534Q1389.304594810447 464.63229596010865 1389.304594810447 464.63229596010865L1389.304594810447 464.63229596010865L1389.7160368093364 465.4845686720938L1388.0408800995726 474.59507007607283Q1388.0408800995726 474.59507007607283 1386.2481685329833 474.47751521924727Q1384.4260682521874 474.3599603624217 1381.5753629741682 474.2717942198026Q1378.724657696149 474.154239362977 1375.4331217050342 474.0660732203579Q1372.1709744281254 473.94851836353234 1369.2027142932805 473.94851836353234L1369.2027142932805 473.94851836353234Q1364.7650184481167 473.94851836353234 1359.6807708904123 474.59507007607283Q1354.5965233327079 475.21223307440687 1351.011100199529 475.8587847869473Q1347.3962883521438 476.4759477852814 1347.3962883521438 476.4759477852814ZM1366.0287331589911 350.8098058387843L1366.0287331589911 350.8098058387843Q1360.7387646018421 350.8098058387843 1358.211335180093 347.40071499084377Q1355.6545170441377 344.0210128571096 1355.6545170441377 339.9947590108351L1355.6545170441377 339.9947590108351Q1355.6545170441377 334.93990016733704 1359.269328891523 331.23692217733264Q1362.8547520247018 327.5339441873283 1368.1447205818508 327.5339441873283L1368.1447205818508 327.5339441873283Q1373.2289681395553 327.5339441873283 1375.8739524181299 330.7960914642369Q1378.5189366967043 334.0876274553519 1378.5189366967043 338.3196023010712L1378.5189366967043 338.3196023010712Q1378.5189366967043 343.4038498587756 1375.0216797061446 347.1068278487799Q1371.524422715585 350.8098058387843 1366.0287331589911 350.8098058387843ZM1446.4362552276573 476.4759477852814L1446.4362552276573 476.4759477852814Q1434.3868824030399 476.4759477852814 1425.0706599996163 470.56881622979824Q1415.7544375961927 464.63229596010865 1410.5820238958688 453.9641927031914Q1405.3802214813393 443.26670073206765 1405.3802214813393 429.51278248348007L1405.3802214813393 429.51278248348007Q1405.3802214813393 414.2894285245733 1411.8457386067437 402.12250084313035Q1418.2818670179415 389.9555731616875 1429.5083558447802 382.8435043237426Q1440.7348446716187 375.7608242000041 1454.4887629202065 375.7608242000041L1454.4887629202065 375.7608242000041Q1466.5381357448239 375.7608242000041 1475.8543581482475 381.69734446969363Q1485.170580551671 387.6044760251768 1490.3429942519945 398.18441313947494Q1495.5154079523181 408.7643502537731 1495.5154079523181 422.7533782160118L1495.5154079523181 422.7533782160118Q1495.5154079523181 437.7710111754739 1489.07927954112 450.02610499953596Q1482.6137624157157 462.3105875378044 1471.5048284457027 469.39326766154284Q1460.3958944756896 476.4759477852814 1446.4362552276573 476.4759477852814ZM1452.3727754973468 466.1311203846343L1452.3727754973468 466.1311203846343Q1464.2164273225196 466.1311203846343 1471.1815525894324 456.49162212494036Q1478.1760665705517 446.8521238652465 1478.1760665705517 430.3650551954652L1478.1760665705517 430.3650551954652Q1478.1760665705517 417.6691306583074 1474.355533723722 407.9414662559943Q1470.5643895910982 398.18441313947494 1463.7755966094235 392.68872358288115Q1457.0161923419555 387.1930340262874 1448.1408006516274 387.1930340262874L1448.1408006516274 387.1930340262874Q1436.2677601122484 387.1930340262874 1429.3026348453357 396.9206984286004Q1422.308120864216 406.64836283091347 1422.308120864216 423.37054121434585L1422.308120864216 423.37054121434585Q1422.308120864216 436.06646575150364 1426.1286537110461 445.7059640111975Q1429.9197978436694 455.316073556685 1436.7085908253441 460.7235969706596Q1443.4679950928123 466.1311203846343 1452.3727754973468 466.1311203846343Z " fill="#a9a9a9" transform="matrix(0.5850826014881155,0,0,0.5850826014881155,0,64.48439868569719)"/></g></svg>